<?xml version="1.0" standalone="no"?>
<!DOCTYPE svg PUBLIC "-//W3C//DTD SVG 1.0//EN" "http://www.w3.org/TR/2001/REC-SVG-20010904/DTD/svg10.dtd">
<svg xmlns="http://www.w3.org/2000/svg" xmlns:xlink="http://www.w3.org/1999/xlink" id="body_1" width="36" height="36">

<g transform="matrix(0.0703125 0 0 0.0703125 0 0)">
	<g>
		<g>
            <path d="M427.15 321.527L417.47 319.015C 409.079 351.355 387.052 378.50803 357.035 393.513L357.035 393.513L361.50702 402.458C 394.109 386.162 418.035 356.663 427.15 321.527z" stroke="none" fill="#000000" fill-rule="nonzero" />
            <path d="M39.773 438.592L452.074 438.592L452.074 448.592L39.773 448.592z" stroke="none" fill="#000000" fill-rule="nonzero" />
            <path d="M61.349 269.521C 61.959 266.366 62.55 263.408 63.124 260.611L63.124 260.611L90.75 270.775L94.203 261.38998L65.232 250.73099C 69.08 233.45398 72.066 224.22299 74.556 217.46199C 77.303 209.991 82.797 204.03699 90.027 200.69699C 97.257 197.357 105.353 197.03299 112.828 199.78499C 120.302 202.53198 126.257 208.02599 129.597 215.25598C 132.936 222.48499 133.262 230.58199 130.515 238.05298C 130.161 239.01398 129.64 240.28897 128.972 241.83398L128.972 241.83398L104.685 232.89798L101.231995 242.28297L124.798 250.95398C 121.118 258.706 116.064995 268.81497 110.32 279.70697L110.32 279.70697L44.028 279.70697L44.028 289.98297C 44.028 292.77197 44.111 295.59396 44.275 298.36996C 47.561 354.22696 83.354004 400.96396 132.591 420.64096L132.591 420.64096L39.773 420.64096L39.773 430.64096L184.687 430.64096L307.16 430.64096L452.074 430.64096L452.074 420.64096L359.242 420.64096C 411.09302 399.89996 447.818 349.15295 447.818 289.98297L447.818 289.98297L447.818 289.17996C 454.205 288.15695 460.259 285.66196 465.589 281.82095C 474.671 275.27396 480.66098 265.58496 482.45798 254.53595C 484.257 243.48395 481.64197 232.39595 475.097 223.31696C 470.45398 216.87296 464.12598 212.01895 457.007 209.09096C 459.52298 205.49295 461.123 201.26495 461.524 196.85196C 461.75 194.41196 461.61697 191.93896 461.12698 189.49196C 458.339 175.78296 444.916 166.89096 431.202 169.67596C 428.831 170.15796 426.57 170.96696 424.473 172.06497C 424.435 171.82297 424.409 171.58098 424.36798 171.33797C 422.077 157.93396 414.705 146.22296 403.607 138.36397C 380.698 122.13997 348.862 127.578964 332.637 150.48796C 330.03 154.16997 327.971 158.13896 326.45398 162.27396C 303.83597 156.77596 280.632 170.09396 274.149 192.66396C 271.32797 202.47395 272.03598 213.01295 276.142 222.33896L276.142 222.33896L285.294 218.30995C 282.12802 211.12096 281.583 202.99396 283.759 195.42696C 286.244 186.77596 291.949 179.60995 299.823 175.24995C 307.23898 171.14595 315.742 169.99396 323.938 171.94795C 322.18198 183.10095 324.111 194.76895 329.828 204.92195L329.828 204.92195L338.542 200.01595C 330.813 186.28894 331.698 169.11795 340.798 156.26794C 347.112 147.35095 356.523 141.42595 367.294 139.58594C 378.064 137.74594 388.90802 140.20993 397.82602 146.52594C 406.743 152.84094 412.669 162.25095 414.50903 173.02194C 416.34903 183.79294 413.88403 194.63695 407.56903 203.55394L407.56903 203.55394L415.73004 209.33295C 421.07205 201.79095 424.19305 193.14095 424.92905 184.16595C 427.11304 181.77795 429.98206 180.12895 433.19305 179.47595C 441.50604 177.79095 449.63705 183.17696 451.32407 191.47195C 451.62207 192.95595 451.70306 194.45595 451.56607 195.93895C 451.20508 199.92595 449.23407 203.66396 446.20706 206.25195C 442.01907 205.72395 437.72705 205.80095 433.46506 206.58395L433.46506 206.58395L435.27106 216.41995C 447.36206 214.19795 459.80905 219.20096 466.98505 229.16295C 477.27005 243.43195 474.02203 263.41495 459.74304 273.70895C 454.41003 277.55194 448.12604 279.62296 441.56503 279.70596L441.56503 279.70596L386.61603 279.70596C 401.61703 257.80698 414.27002 256.64996 414.40903 256.64096L414.40903 256.64096L414.30704 256.64496L414.02405 246.64896C 411.98505 246.70695 393.95505 248.14996 374.72305 279.70596L374.72305 279.70596L372.23004 279.70596C 372.40704 278.08795 372.52203 276.45697 372.54803 274.81595C 372.76804 260.56995 367.38702 247.13596 357.39703 236.98994C 347.40402 226.84094 334.05902 221.25194 319.81903 221.25194C 310.91702 221.25194 302.10602 223.51494 294.33502 227.79994C 292.04803 229.06694 289.63202 230.26395 287.15802 231.35594C 274.454 236.95595 261.03403 239.21094 248.34802 237.87294C 247.29802 237.76294 246.22702 237.71094 245.14803 237.69394C 233.48203 227.94394 220.27502 219.56894 210.02303 213.65294C 209.81602 202.47495 210.80403 191.20795 212.97902 180.14793L212.97902 180.14793L214.15202 174.18294L208.07303 174.18294C 205.26804 174.18294 198.10103 174.82594 192.14803 180.77893C 191.58003 181.34793 191.05103 181.94493 190.55203 182.56093C 190.05304 181.94493 189.52403 181.34793 188.95604 180.77893C 183.00204 174.82494 175.83604 174.18294 173.03104 174.18294L173.03104 174.18294L166.95204 174.18294L168.12404 180.14694C 170.29904 191.20795 171.28604 202.47394 171.08003 213.64694C 162.57103 218.55495 152.02803 225.15294 142.02704 232.82594C 142.98503 225.46394 141.86604 217.96594 138.67604 211.06094C 136.41405 206.16495 133.25204 201.86894 129.38504 198.34094C 131.59904 196.90594 133.72404 195.22295 135.59103 193.64795C 142.77803 187.58095 151.11403 178.64995 159.06403 168.50095C 167.01303 158.35495 173.68602 148.12395 177.85403 139.69295C 181.30304 132.71594 185.22704 122.919945 179.49603 118.42495C 174.82803 114.76795 167.10503 117.82095 156.46603 127.49295C 156.61304 126.138954 156.72803 124.81595 156.80003 123.53795C 157.63904 108.599945 152.89003 103.65195 148.75803 102.13195C 141.45102 99.44395 133.28703 106.28395 126.03503 117.12695C 124.25002 102.29695 120.31103 94.67095 114.26503 94.42496C 107.04103 94.13396 103.63003 104.135956 101.73503 111.68496C 99.44403 120.80696 97.895035 132.92197 97.37203 145.79996C 96.84803 158.68196 97.407036 170.88696 98.94803 180.16496C 99.35903 182.64096 99.90303 185.38196 100.69503 187.97197C 95.62003 188.20697 90.58703 189.42197 85.83503 191.61697C 76.17903 196.07698 68.841034 204.02997 65.17303 214.00598C 61.765026 223.25899 57.479027 236.86598 51.53103 267.62L51.53103 267.62L61.349 269.521zM135.655 251.35C 139.38899 247.787 143.482 244.347 147.713 241.09001C 141.192 251.848 136.691 264.375 136.691 277.66C 136.691 278.344 136.71599 279.025 136.73 279.708L136.73 279.708L121.612 279.708C 127.463 268.466 132.326 258.557 135.655 251.35zM209.648 263.936L191.34299 263.936L191.34299 273.936L208.21399 273.936C 208.20999 275.88202 208.35098 277.81 208.652 279.708L208.652 279.708L174.95898 279.708C 174.95198 279.025 174.94098 278.344 174.94098 277.66C 174.94098 254.546 181.29997 235.258 186.44598 224.514L186.44598 224.514L186.44598 225.95401L186.45598 225.95401L186.45497 224.49602C 188.03998 221.18802 189.51198 218.68102 190.64397 217.13702C 193.70697 221.15402 199.31396 232.06003 203.00397 248.82903L203.00397 248.82903L212.77097 246.68103C 210.83197 237.86603 208.06996 229.35004 204.88496 222.26503C 212.82697 226.84602 222.61696 232.94704 231.89796 239.94803C 224.43997 242.73103 217.97696 247.95503 213.64496 254.95103C 211.899 257.759 210.564 260.787 209.648 263.936zM146.73 279.708C 146.71399 279.025 146.691 278.345 146.691 277.66C 146.691 257.867 158.50899 241.668 165.554 233.774C 168.987 229.927 172.386 226.758 175.538 224.207C 174.90399 225.712 174.308 227.217 173.756 228.683C 170.46399 237.427 164.942 255.41699 164.942 277.66C 164.942 278.344 164.953 279.025 164.96 279.708L164.96 279.708L146.73 279.708zM437.818 289.984C 437.818 362.03 379.205 420.64203 307.15997 420.64203L307.15997 420.64203L184.687 420.64203C 115.602 420.64203 58.310997 366.67603 54.257996 297.78302C 54.105995 295.20203 54.028996 292.57803 54.028996 289.984L54.028996 289.984L54.028996 289.708L437.819 289.708L437.819 289.984zM295.379 273.983C 295.379 260.426 306.412 249.39801 319.975 249.39801C 333.532 249.39801 344.561 260.427 344.561 273.983C 344.561 275.93 344.31 277.841 343.864 279.708L343.864 279.708L296.079 279.708C 295.63 277.846 295.379 275.935 295.379 273.983zM291.193 240.508C 293.943 239.29399 296.63098 237.96199 299.171 236.554C 305.46 233.087 312.59998 231.254 319.818 231.254C 331.357 231.254 342.172 235.784 350.271 244.008C 358.367 252.23 362.727 263.117 362.548 274.66C 362.521 276.358 362.383 278.045 362.159 279.708L362.159 279.708L354.079 279.708C 354.392 277.82602 354.55902 275.91602 354.55902 273.983C 354.55902 254.913 339.04303 239.39801 319.97302 239.39801C 300.89703 239.39801 285.377 254.91301 285.377 273.983C 285.377 275.918 285.544 277.828 285.858 279.708L285.858 279.708L218.82901 279.708C 218.35802 277.592 218.14801 275.41602 218.214 273.206C 218.35 268.625 219.70601 264.139 222.14 260.223C 226.739 252.795 234.614 248.11699 243.205 247.70898C 244.59401 247.64299 245.97 247.68098 247.296 247.82098C 261.719 249.338 276.895 246.811 291.193 240.508zM199.218 187.853C 200.062 187.009 200.957 186.358 201.845 185.856C 200.741 193.24 200.132 200.685 200.013 208.113C 198.234 207.171 196.73 206.39601 195.551 205.79901L195.551 205.79901L195.551 196.70702C 195.551 193.362 196.853 190.218 199.218 187.853zM179.256 185.856C 180.144 186.358 181.039 187.009 181.883 187.853C 184.248 190.218 185.55 193.362 185.55 196.707L185.55 196.707L185.55 205.798C 184.371 206.394 182.862 207.172 181.088 208.11101C 180.97 200.684 180.361 193.24 179.256 185.856zM171.836 128.219C 169.968 134.101 163.649 146.43399 151.191 162.33699C 148.131 166.243 145.194 169.73299 142.42299 172.831C 144.84799 167.978 147.06099 162.821 148.965 157.646C 150.486 153.515 151.791 149.40599 152.899 145.38899C 161.658 135.672 168.161 130.453 171.836 128.219zM145.295 111.546C 147.414 113.565994 148.798 129.143 139.582 154.192C 130.364 179.243 119.213 190.20801 116.291 190.37201C 114.172 188.352 112.787 172.77501 122.004 147.725C 131.222 122.674 142.373 111.71 145.295 111.546zM107.364 146.209C 108.183 126.025 111.366 112.537994 113.755 106.848C 115.145 111.048 116.77 119.576996 117.078995 133.318L117.078995 133.318L117.133995 133.31699C 115.494995 136.88998 113.979 140.57698 112.618996 144.27199C 110.48499 150.07199 108.659 156.109 107.301994 161.982C 107.133 157.28 107.127 152.017 107.364 146.209z" stroke="none" fill="#000000" fill-rule="nonzero" />
            <path transform="matrix(-0.9385 -0.3453 0.3453 -0.9385 89.3033 479.6154)"  d="M80.33 226.854L94.406006 226.854L94.406006 236.854L80.33 236.854z" stroke="none" fill="#000000" fill-rule="nonzero" />
            <path d="M450.381 262.348C 446.777 264.943 442.379 265.978 437.99402 265.267L437.99402 265.267L436.39 275.137C 437.83603 275.37198 439.28403 275.48898 440.72 275.48898C 446.258 275.48898 451.643 273.762 456.225 270.464C 461.996 266.30798 465.803 260.15198 466.946 253.13199C 468.087 246.11198 466.42603 239.068 462.27103 233.297L462.27103 233.297L454.15604 239.14099C 456.75204 242.745 457.78802 247.144 457.07504 251.527C 456.361 255.909 453.984 259.752 450.381 262.348z" stroke="none" fill="#000000" fill-rule="nonzero" />
            <path d="M364.225 166.188L366.989 156.577C 355.527 153.284 343.51703 159.927 340.221 171.39C 336.926 182.854 343.57202 194.861 355.035 198.157L355.035 198.157L357.797 188.54599C 351.633 186.77399 348.061 180.31699 349.832 174.15298C 351.604 167.989 358.061 164.416 364.225 166.188z" stroke="none" fill="#000000" fill-rule="nonzero" />
            <path d="M189.816 99.758L199.816 99.758L199.816 87.37L212.205 87.37L212.205 77.37L199.816 77.37L199.816 64.981L189.816 64.981L189.816 77.37L177.428 77.37L177.428 87.37L189.816 87.37L189.816 99.758" stroke="none" fill="#000000" fill-rule="nonzero" />
            <path d="M306.871 144.48L316.871 144.48L316.871 132.092L329.26 132.092L329.26 122.092L316.871 122.092L316.871 109.703L306.871 109.703L306.871 122.092L294.482 122.092L294.482 132.092L306.871 132.092L306.871 144.48" stroke="none" fill="#000000" fill-rule="nonzero" />
            <path d="M41.376 186.861L51.376 186.861L51.376 174.473L63.765 174.473L63.765 164.473L51.376 164.473L51.376 152.084L41.376 152.084L41.376 164.473L28.987 164.473L28.987 174.473L41.376 174.473L41.376 186.861" stroke="none" fill="#000000" fill-rule="nonzero" />
		</g>
	</g>
</g>
</svg>