<?xml version="1.0" standalone="no"?>
<!DOCTYPE svg PUBLIC "-//W3C//DTD SVG 1.0//EN" "http://www.w3.org/TR/2001/REC-SVG-20010904/DTD/svg10.dtd">
<svg xmlns="http://www.w3.org/2000/svg" xmlns:xlink="http://www.w3.org/1999/xlink" id="body_1" width="36" height="36">

<g transform="matrix(0.0703125 0 0 0.0703125 0 0)">
	<g>
		<g>
            <path d="M269.506 329.877C 269.506 280.752 229.54001 240.78601 180.41501 240.78601L180.41501 240.78601L180.41501 250.78601C 224.026 250.78601 259.506 286.265 259.506 329.877L259.506 329.877L269.506 329.877z" stroke="none" fill="#000000" fill-rule="nonzero" />
            <path d="M26.241 326.526L107.832 326.526L107.832 231.445L148.729 231.445L148.729 270.87C 148.729 296.09198 159.302 320.437 177.737 337.66498C 197.131 355.78796 208.254 380.85098 208.254 406.42596L208.254 406.42596L208.254 455.44595L218.254 455.44595L218.254 406.42596C 218.254 378.09198 205.97499 350.36496 184.566 330.35895C 168.14699 315.01495 158.73 293.33295 158.73 270.87094L158.73 270.87094L158.73 219.56894C 158.73 205.92194 169.833 194.81793 183.48 194.81793L183.48 194.81793L244.306 194.81793C 246.827 194.81793 248.879 196.86993 248.879 199.39093C 248.879 211.98293 238.635 222.22693 226.043 222.22693L226.043 222.22693L180.828 222.22693L180.828 232.22693L226.043 232.22693C 234.962 232.22693 243.057 228.64793 248.981 222.85693C 253.748 227.13994 259.982 229.61194 266.671 229.61194C 275.53 229.61194 283.384 225.24594 288.207 218.55794C 293.027 225.24594 300.877 229.61194 309.731 229.61194C 320.68198 229.61194 330.103 222.94695 334.15198 213.46394L334.15198 213.46394L343.50198 213.46394L343.50198 310.58694C 343.50198 319.66895 340.63098 328.30594 335.201 335.55795C 325.369 348.67896 320.172 363.85495 320.172 379.44696L320.172 379.44696L320.172 455.44696L330.172 455.44696L330.172 379.44696C 330.172 366.03497 334.678 352.93195 343.205 341.55295C 349.94098 332.55594 353.50198 321.84695 353.50198 310.58694L353.50198 310.58694L353.50198 213.46394L404.16797 213.46394L404.16797 221.44594L367.08197 221.44594L367.08197 231.44594L404.16797 231.44594L404.16797 326.52695L485.75897 326.52695L485.75897 266.23294L505.16296 242.36894L505.16296 140.713L485.75897 116.849L485.75897 56.555L404.16797 56.555L404.16797 169.61801L336.26898 169.61801L336.26898 143.28601C 336.26898 136.203 333.507 129.54102 328.498 124.53101C 323.49597 119.51202 316.83197 116.749016 309.732 116.749016C 303.426 116.749016 297.63098 118.96602 293.074 122.65601C 292.46802 116.57401 289.807 110.94202 285.432 106.583015C 280.418 101.568016 273.755 98.807014 266.67102 98.807014C 257.82 98.807014 249.97401 103.17001 245.15302 109.85602C 244.32101 108.70502 243.39601 107.60802 242.37102 106.584015C 237.35602 101.569016 230.69801 98.808014 223.62302 98.808014C 209.90501 98.808014 198.58401 109.27101 197.22401 122.63702C 192.52602 118.82401 186.70901 116.750015 180.56302 116.750015C 165.93002 116.750015 154.02602 128.65402 154.02602 143.28702L154.02602 143.28702L154.02602 174.61902L164.02602 174.61902L164.02602 143.28702C 164.02602 134.16902 171.44402 126.750015 180.56302 126.750015C 184.98502 126.750015 189.13402 128.47002 192.25201 131.59802C 195.37001 134.71503 197.08601 138.86702 197.08601 143.28702L197.08601 143.28702L207.08601 143.28702L207.08601 125.34402C 207.08601 116.22601 214.50401 108.808014 223.62302 108.808014C 228.02702 108.808014 232.17302 110.530014 235.29901 113.65601C 238.425 116.78201 240.14702 120.933014 240.14702 125.34401L240.14702 125.34401L240.14702 138.322L250.14702 138.322L250.14702 125.34401C 250.14702 116.22601 257.56003 108.808014 266.67 108.808014C 271.083 108.808014 275.233 110.529015 278.36502 113.66202C 281.48703 116.77302 283.20703 120.92302 283.20703 125.34502L283.20703 125.34502L283.20703 143.28802L293.20703 143.28802C 293.20703 134.17003 300.61902 126.75102 309.73004 126.75102C 314.15204 126.75102 318.30106 128.47102 321.41904 131.59903C 324.54504 134.72504 326.26703 138.87602 326.26703 143.28802L326.26703 143.28802L326.26703 203.08902C 326.26703 212.20001 318.84802 219.61302 309.73004 219.61302C 300.61905 219.61302 293.20703 212.20003 293.20703 203.08902L293.20703 203.08902L293.20703 163.47902L283.20703 163.47902L283.20703 203.08902C 283.20703 212.20001 275.78802 219.61302 266.67004 219.61302C 262.20206 219.61302 258.06006 217.84402 255.02205 214.81102C 257.48004 210.21002 258.87805 204.96202 258.87805 199.39201C 258.87805 193.43501 255.28004 188.307 250.14705 186.05002L250.14705 186.05002L250.14705 152.37003L240.14705 152.37003L240.14705 184.81802L207.08604 184.81802L207.08604 163.37302L197.08604 163.37302L197.08604 184.81802L183.47905 184.81802C 170.12704 184.81802 158.51805 192.39102 152.70105 203.46402L152.70105 203.46402L107.83205 203.46402L107.83205 179.61902L140.84505 179.61902L140.84505 169.61902L107.83205 169.61902L107.83205 56.555L26.241 56.555L26.241 116.849L6.837 140.713L6.837 242.368L26.241 266.232L26.241 326.526zM495.163 144.266L495.163 238.81601L485.759 250.382L485.759 132.699L495.163 144.266zM414.168 66.555L439.964 66.555L439.964 283.229L449.964 283.229L449.964 66.555L475.759 66.555L475.759 104.55L475.759 278.531L475.759 316.526L449.964 316.526L449.964 297.547L439.964 297.547L439.964 316.526L414.168 316.526L414.168 213.463L414.168 169.618L414.168 66.555zM404.168 179.618L404.168 203.463L336.259 203.463C 336.26102 203.33699 336.269 203.213 336.269 203.08699L336.269 203.08699L336.269 179.618L404.168 179.618zM149.277 213.463C 148.92299 215.446 148.72899 217.484 148.72899 219.568L148.72899 219.568L148.72899 221.44499L107.831985 221.44499L107.831985 213.463L149.277 213.463zM36.241 66.555L62.036003 66.555L62.036003 85.534L72.036 85.534L72.036 66.555L97.832 66.555L97.832 169.61801L97.832 213.46301L97.832 316.526L72.036 316.526L72.036 99.853L62.036003 99.853L62.036003 316.52698L36.241 316.52698L36.241 278.53198L36.241 104.55L36.241 66.555zM16.837 238.815L16.837 144.265L26.241001 132.7L26.241001 250.381L16.837 238.815z" stroke="none" fill="#000000" fill-rule="nonzero" />
		</g>
	</g>
</g>
</svg>